<svg version="1.1" xmlns="http://www.w3.org/2000/svg" xmlns:xlink="http://www.w3.org/1999/xlink" width="28px" height="35px" viewBox="0,0,204.79688,256"><g fill="none" fill-rule="none" stroke="none" stroke-width="1" stroke-linecap="butt" stroke-linejoin="miter" stroke-miterlimit="10" stroke-dasharray="" stroke-dashoffset="0" font-family="none" font-weight="none" font-size="none" text-anchor="none" style="mix-blend-mode: normal"><g transform="translate(0.33285,0.02615) scale(7.31429,7.31429)"><path d="M11.8,22.8c0,0.1 -0.1,0.2 -0.1,0.3c-1.3,5 -1.4,6.2 -2.7,8.5c-0.6,1.1 -1.3,2.2 -2.1,3.2c-0.2,0.1 -0.2,0.2 -0.4,0.2c-0.2,0 -0.2,-0.2 -0.2,-0.4c-0.3,-1.5 -0.4,-3 -0.3,-4.6c0.1,-2 0.3,-2.7 2.9,-13.6c0,-0.2 0,-0.3 -0.1,-0.5c-0.6,-1.7 -0.7,-3.4 -0.2,-5.1c1.2,-3.7 5.4,-4 6.1,-0.9c0.5,1.9 -0.7,4.4 -1.7,8.1c-0.8,3 2.8,5.2 5.9,3c2.8,-2 3.9,-6.9 3.7,-10.4c-0.4,-6.9 -8,-8.4 -12.8,-6.2c-5.5,2.5 -6.8,9.4 -4.3,12.5c0.3,0.4 0.6,0.6 0.5,1c-0.2,0.6 -0.3,1.3 -0.5,1.9c-0.1,0.5 -0.5,0.6 -1,0.4c-0.9,-0.4 -1.7,-1 -2.3,-1.7c-2.1,-2.6 -2.7,-7.8 0.1,-12.2c3.1,-4.9 8.9,-6.8 14.1,-6.2c6.3,0.7 10.2,5 11,9.9c0.3,2.2 0.1,7.7 -3,11.5c-3.6,4.4 -9.4,4.7 -12.1,2c-0.2,-0.2 -0.3,-0.4 -0.5,-0.7z" id="XMLID_94_" fill="#013056" fill-rule="evenodd"></path><g id="XMLID_92_" fill="#000000" fill-rule="nonzero" font-family="Inter, apple-system, BlinkMacSystemFont, &quot;Helvetica Neue&quot;, &quot;Segoe UI&quot;, &quot;Fira Sans&quot;, Roboto, Oxygen, Ubuntu, &quot;Droid Sans&quot;, Arial, sans-serif" font-weight="400" font-size="16" text-anchor="start"></g><g id="XMLID_93_" fill="#000000" fill-rule="nonzero" font-family="Inter, apple-system, BlinkMacSystemFont, &quot;Helvetica Neue&quot;, &quot;Segoe UI&quot;, &quot;Fira Sans&quot;, Roboto, Oxygen, Ubuntu, &quot;Droid Sans&quot;, Arial, sans-serif" font-weight="400" font-size="16" text-anchor="start"></g><g id="XMLID_95_" fill="#000000" fill-rule="nonzero" font-family="Inter, apple-system, BlinkMacSystemFont, &quot;Helvetica Neue&quot;, &quot;Segoe UI&quot;, &quot;Fira Sans&quot;, Roboto, Oxygen, Ubuntu, &quot;Droid Sans&quot;, Arial, sans-serif" font-weight="400" font-size="16" text-anchor="start"></g><g id="XMLID_96_" fill="#000000" fill-rule="nonzero" font-family="Inter, apple-system, BlinkMacSystemFont, &quot;Helvetica Neue&quot;, &quot;Segoe UI&quot;, &quot;Fira Sans&quot;, Roboto, Oxygen, Ubuntu, &quot;Droid Sans&quot;, Arial, sans-serif" font-weight="400" font-size="16" text-anchor="start"></g><g id="XMLID_97_" fill="#000000" fill-rule="nonzero" font-family="Inter, apple-system, BlinkMacSystemFont, &quot;Helvetica Neue&quot;, &quot;Segoe UI&quot;, &quot;Fira Sans&quot;, Roboto, Oxygen, Ubuntu, &quot;Droid Sans&quot;, Arial, sans-serif" font-weight="400" font-size="16" text-anchor="start"></g><g id="XMLID_98_" fill="#000000" fill-rule="nonzero" font-family="Inter, apple-system, BlinkMacSystemFont, &quot;Helvetica Neue&quot;, &quot;Segoe UI&quot;, &quot;Fira Sans&quot;, Roboto, Oxygen, Ubuntu, &quot;Droid Sans&quot;, Arial, sans-serif" font-weight="400" font-size="16" text-anchor="start"></g></g></g></svg>